<svg width="20" height="20" viewBox="0 0 20 20" fill="none" xmlns="http://www.w3.org/2000/svg">
<path d="M13.71 10.7096C14.6904 9.9383 15.406 8.88056 15.7572 7.68358C16.1085 6.4866 16.0779 5.2099 15.6698 4.0311C15.2617 2.85231 14.4963 1.83003 13.4801 1.10649C12.4639 0.382955 11.2474 -0.00585937 10 -0.00585938C8.75255 -0.00585938 7.53611 0.382955 6.51993 1.10649C5.50374 1.83003 4.73834 2.85231 4.33021 4.0311C3.92208 5.2099 3.89151 6.4866 4.24276 7.68358C4.59401 8.88056 5.3096 9.9383 6.29 10.7096C4.61007 11.3827 3.14428 12.499 2.04889 13.9396C0.953495 15.3801 0.26956 17.0909 0.0699967 18.8896C0.0555513 19.021 0.0671132 19.1538 0.104022 19.2807C0.140931 19.4075 0.202464 19.5259 0.285108 19.629C0.452016 19.8371 0.69478 19.9705 0.959997 19.9996C1.22521 20.0288 1.49116 19.9514 1.69932 19.7845C1.90749 19.6176 2.04082 19.3749 2.07 19.1096C2.28958 17.1548 3.22168 15.3494 4.68822 14.0384C6.15475 12.7274 8.0529 12.0027 10.02 12.0027C11.9871 12.0027 13.8852 12.7274 15.3518 14.0384C16.8183 15.3494 17.7504 17.1548 17.97 19.1096C17.9972 19.3554 18.1144 19.5823 18.2991 19.7467C18.4838 19.911 18.7228 20.0011 18.97 19.9996H19.08C19.3421 19.9695 19.5817 19.8369 19.7466 19.6309C19.9114 19.4248 19.9881 19.162 19.96 18.8996C19.7595 17.0958 19.0719 15.3806 17.9708 13.9378C16.8698 12.4951 15.3969 11.3791 13.71 10.7096V10.7096ZM10 9.99964C9.20887 9.99964 8.43551 9.76504 7.77772 9.32551C7.11992 8.88599 6.60723 8.26128 6.30448 7.53037C6.00173 6.79947 5.92251 5.9952 6.07686 5.21928C6.2312 4.44335 6.61216 3.73062 7.17157 3.17121C7.73098 2.6118 8.44371 2.23084 9.21964 2.0765C9.99556 1.92215 10.7998 2.00137 11.5307 2.30412C12.2616 2.60687 12.8863 3.11956 13.3259 3.77736C13.7654 4.43515 14 5.20851 14 5.99964C14 7.0605 13.5786 8.07792 12.8284 8.82806C12.0783 9.57821 11.0609 9.99964 10 9.99964Z" fill="white"/>
</svg>